# xmcd CD database file
#
# Track frame offsets:
#	183
#	25990
#	49345
#	62293
#	84625
#	109873
#	132118
#	145390
#	160700
#
# Disc length: 2400 seconds
#
# Revision: 4
# Processed by: cddbd v1.5.1PL2 Copyright (c) Steve Scherf et al.
# Submitted via: CDex 1.51
#
DISCID=74095e09
DTITLE=Clifford Brown and Max Roach - Study in Brown
DYEAR=1955
DGENRE=Jazz
TTITLE0=Cherokee
TTITLE1=Jacqui
TTITLE2=Swingin'
TTITLE3=Lands End
TTITLE4=George's Dilemma
TTITLE5=Sandu
TTITLE6=Gerkin for Perkin
TTITLE7=If I Love Again
TTITLE8=Take the 'A' Train
EXTD=YEAR: 1955
EXTT0=
EXTT1=
EXTT2=
EXTT3=
EXTT4=
EXTT5=
EXTT6=
EXTT7=
EXTT8=
PLAYORDER=
